<svg width="105" height="105" viewBox="0 0 105 105" fill="currentColor" xmlns="http://www.w3.org/2000/svg">
  <path d="M92.6102 94.6102C93.7147 94.6102 94.6102 93.7147 94.6102 92.6102V74.6102C94.6102 73.5056 93.7147 72.6102 92.6102 72.6102C91.5056 72.6102 90.6102 73.5056 90.6102 74.6102V90.6102H74.6102C73.5056 90.6102 72.6102 91.5056 72.6102 92.6102C72.6102 93.7147 73.5056 94.6102 74.6102 94.6102H92.6102ZM10.5858 13.4142L91.196 94.0244L94.0244 91.196L13.4142 10.5858L10.5858 13.4142Z"/>
  <path d="M94.6102 12C94.6102 10.8954 93.7147 10 92.6102 10H74.6102C73.5056 10 72.6102 10.8954 72.6102 12C72.6102 13.1046 73.5056 14 74.6102 14H90.6102V30C90.6102 31.1046 91.5056 32 92.6102 32C93.7147 32 94.6102 31.1046 94.6102 30V12ZM13.4142 94.0244L94.0244 13.4142L91.196 10.5858L10.5858 91.196L13.4142 94.0244Z"/>
  <path d="M12.0001 10C10.8955 10 10.0001 10.8954 10.0001 12V30C10.0001 31.1046 10.8955 32 12.0001 32C13.1046 32 14.0001 31.1046 14.0001 30V14H30.0001C31.1046 14 32.0001 13.1046 32.0001 12C32.0001 10.8954 31.1046 10 30.0001 10H12.0001ZM94.0244 91.196L13.4143 10.5858L10.5858 13.4142L91.196 94.0244L94.0244 91.196Z"/>
  <path d="M10.0001 92.6102C10.0001 93.7147 10.8955 94.6102 12.0001 94.6102H30.0001C31.1046 94.6102 32.0001 93.7147 32.0001 92.6102C32.0001 91.5056 31.1046 90.6102 30.0001 90.6102H14.0001V74.6102C14.0001 73.5056 13.1046 72.6102 12.0001 72.6102C10.8955 72.6102 10.0001 73.5056 10.0001 74.6102V92.6102ZM91.196 10.5858L10.5858 91.196L13.4143 94.0244L94.0244 13.4142L91.196 10.5858Z"/>
</svg>
